<svg xmlns="http://www.w3.org/2000/svg" xml:space="preserve" width="2000" height="353" data-id="lg_wJ34vFK6kiTEcKWucK" data-version="1" viewBox="0 0 2000 353"><g data-padding="20"><g transform="translate(10 6.326)scale(.96416)"><rect width="506.94" height="320.92" x="425.442" y="-161.333" fill="none" rx="0" ry="0" transform="matrix(1.1 0 0 1.1 280 177.46)"/><path fill="#707070" d="M811.353 68.11h2.91q5.19 0 9.63 4.73 4.43 4.74 4.43 10.86t-4.59 10.47q-4.58 4.36-11.46 4.36h-2.45q-5.35 0-9.55-4.51-4.21-4.51-4.21-10.63 0-6.11 4.36-10.7 4.36-4.58 10.93-4.58m5.66 54.27-37.92 145.55q-1.83 6.88-9.32 6.88h-9.18q-8.71 0-6.88-7.19l38.22-145.55q1.53-6.26 8.72-6.26h10.4q4.12 0 5.5 1.37 1.37 1.38.46 5.2m15.13 87.6 100.3-31.03-82.1-31.65q-7.49-2.75-5.97-11.47l1.23-5.96q.91-5.04 3.13-5.96t6.65.92l100.14 42.19q7.49 3.21 5.96 11.01l-.91 4.43q-1.23 6.88-9.48 9.64l-119.86 41.12q-5.97 1.84-7.8-.84-1.84-2.68-.61-7.72l1.22-5.2q2.14-7.64 8.1-9.48m180.87-94.17h9.63q7.64 0 5.96 6.57l-38.22 145.55q-7.49 27.82-25.3 43.64-17.81 15.83-34.17 20.57-6.58 1.83-9.64-2.6l-2.59-3.67q-2.14-2.6-1.53-5.89.61-3.28 4.12-4.51 13.76-5.35 27.22-18.95 13.45-13.61 19.11-34.56l37-139.89q1.53-6.26 8.41-6.26m10.39-47.7h2.75q5.35 0 9.71 4.73 4.36 4.74 4.36 10.86t-4.51 10.47q-4.51 4.36-11.39 4.36h-2.6q-5.35 0-9.56-4.51-4.2-4.51-4.2-10.63 0-6.11 4.36-10.7 4.35-4.58 11.08-4.58m19.57 141.87 100.29-31.03-82.1-31.65q-7.49-2.75-5.96-11.47l1.22-5.96q.92-5.04 3.14-5.96t6.65.92l100.14 42.19q7.49 3.21 5.96 11.01l-.92 4.43q-1.22 6.88-9.47 9.64l-119.87 41.12q-5.96 1.84-7.79-.84-1.84-2.68-.61-7.72l1.22-5.2q2.14-7.64 8.1-9.48m211.29-165.56-34.25 134.23 47.4-59.47q2.44-3.36 8.4-3.36h11.62q4.9 0 5.2 3.44.31 3.44-3.36 7.41l-53.82 63.29 24.31 76.45q2.91 8.41-6.57 8.41h-8.41q-4.74 0-6.42-1.23-1.68-1.22-2.91-5.65l-20.33-69.87-17.89 69.87q-1.83 6.88-9.48 6.88h-5.2q-11.61 0-9.17-10.09l57.33-220.62q1.84-6.88 9.33-6.88h7.19q8.86 0 7.03 7.19"/></g></g></svg>
